<svg width="48" height="48" viewBox="0 0 48 48" fill="none" xmlns="http://www.w3.org/2000/svg">
<path d="M22.959 2.33901L5.28498 8.49001C3.95198 8.95401 3.12198 10.285 3.29298 11.687L6.12098 34.874C6.23798 35.837 6.81398 36.683 7.66598 37.147L22.516 45.219C23.413 45.706 24.496 45.704 25.391 45.214L40.343 37.019C41.19 36.555 41.762 35.71 41.879 34.751L44.705 11.577C44.877 10.167 44.037 8.83001 42.692 8.37301L24.91 2.33201C24.277 2.11701 23.59 2.11901 22.959 2.33901Z" fill="url(#paint0_linear_74_45)"/>
<path d="M42.62 12.14L39.96 34C39.88 34.64 39.5 35.2 38.93 35.51L24.94 43C24.64 43.16 24.32 43.23 24 43.23C23.95 43.23 23.91 43.22 23.86 43.22C23.59 43.21 23.32 43.14 23.06 43L9.07003 35.64C8.51003 35.33 8.12003 34.76 8.04003 34.12L5.38003 12.24C5.26003 11.31 5.82003 10.42 6.70003 10.11L23.32 4.24C23.5 4.18 23.68 4.14 23.86 4.14C23.91 4.13 23.95 4.13 24 4.13C24.22 4.13 24.44 4.17 24.66 4.24C26.24 4.81 30.86 6.47 41.28 10C42.17 10.31 42.74 11.2 42.62 12.14Z" fill="url(#paint1_linear_74_45)"/>
<path d="M11.0129 34H15.4219L23.9999 15.504V5.99597L11.0129 34Z" fill="white"/>
<path d="M18 24H24V28H18V24Z" fill="white"/>
<path d="M42.62 12.14L39.96 34C39.88 34.64 39.5 35.2 38.93 35.51L24.94 43C24.64 43.16 24.32 43.23 24 43.23V4.13C24.22 4.13 24.44 4.17 24.66 4.24C26.24 4.81 30.86 6.47 41.28 10C42.17 10.31 42.74 11.2 42.62 12.14Z" fill="#B31523"/>
<path d="M24 6V15.508L32.578 34.004H36.987L24 6Z" fill="#BFC8D1"/>
<path d="M24 24.004H30V28.004H24V24.004Z" fill="#BFC8D1"/>
<path opacity="0.05" d="M24 5.99604V6.00004L36.987 34.004H32.578L29.795 28.004H24V28H18.205L15.422 34H11.013L24 5.99604ZM20.06 24H24V24.004H27.94L24 15.508V15.504L20.06 24ZM25 1.46704L23.093 5.57504L10.106 33.579L9.44702 35H11.013H15.422H16.061L16.33 34.421L18.843 29H23L24 29.004H29.157L31.671 34.425L31.94 35.004H32.579H36.988H38.554L37.895 33.583L25 5.77904V1.46704ZM21.626 23L23.999 17.883L26.374 23.004H25L24 23H21.626Z" fill="black"/>
<path opacity="0.07" d="M24 5.99603V6.00003L36.987 34.004H32.578L29.795 28.004H24V28H18.205L15.422 34H11.013L24 5.99603ZM20.06 24H24V24.004H27.94L24 15.508V15.504L20.06 24ZM24.5 3.73303L23.546 5.78503L10.559 33.79L10.23 34.5H11.013H15.422H15.741L15.875 34.21L18.523 28.5H23.5L24 28.504H29.476L32.124 34.214L32.258 34.504H32.577H36.986H37.769L37.44 33.794L24.5 5.89003V3.73303ZM20.843 23.5L23.999 16.694L27.157 23.504H24.5L24 23.5H20.843Z" fill="black"/>
<defs>
<linearGradient id="paint0_linear_74_45" x1="19.369" y1="6.25601" x2="32.915" y2="43.472" gradientUnits="userSpaceOnUse">
<stop stop-color="#DFE9F2"/>
<stop offset="0.391" stop-color="#D6E0E9"/>
<stop offset="1" stop-color="#BFC8D1"/>
</linearGradient>
<linearGradient id="paint1_linear_74_45" x1="24" y1="2.152" x2="24" y2="39.957" gradientUnits="userSpaceOnUse">
<stop stop-color="#F44F5A"/>
<stop offset="0.443" stop-color="#EE3D4A"/>
<stop offset="1" stop-color="#E52030"/>
</linearGradient>
</defs>
</svg>
