<svg width="24" height="24" viewBox="0 0 24 24" fill="none" xmlns="http://www.w3.org/2000/svg">
<path d="M11.4235 9.6341C11.6035 9.37154 11.8012 9.33746 11.962 9.33746C12.1219 9.33746 12.3888 9.37154 12.5688 9.6341C14.9184 12.8347 19.7913 21.2775 20.2416 21.7373C20.9088 22.4184 21.8246 21.9941 22.3564 21.2218C22.8811 20.461 23.026 19.9272 23.026 19.3579C23.026 18.9701 15.4372 4.96994 14.6721 3.8045C13.9372 2.68274 13.6977 2.40002 12.4406 2.40002H11.4998C10.2451 2.40002 10.0636 2.68274 9.32925 3.80306C8.56269 4.9709 0.974365 18.9711 0.974365 19.3589C0.974365 19.9291 1.11933 20.4619 1.64397 21.2227C2.17533 21.9951 3.09165 22.4203 3.75885 21.7383C4.20957 21.2784 9.07533 12.8357 11.424 9.63602L11.4235 9.6341Z" fill="white"/>
</svg>
