<svg width="100" height="100" viewBox="0 0 100 100" fill="none" xmlns="http://www.w3.org/2000/svg">
<g clip-path="url(#clip0_233_10)">
<path d="M92.5125 78.75C90.075 78.75 87.7375 77.5925 86.2575 75.6575L72.26 57.355L58.26 75.6575C56.78 77.5925 54.4425 78.75 52.005 78.75H46.455L67.5375 51.18L46.5625 23.75H52.1125C54.55 23.75 56.89 24.905 58.3675 26.84L72.2575 45.005L86.15 26.84C87.6275 24.905 89.9675 23.75 92.405 23.75H97.955L76.9775 51.18L98.0625 78.75H92.5125Z" fill="#B0C1D4"/>
<path d="M95.425 25L75.4051 51.18L95.5326 77.5H92.5126C90.4501 77.5 88.5026 76.5375 87.2501 74.9L72.26 55.2975L57.2701 74.9C56.0176 76.54 54.07 77.5 52.0075 77.5H48.9875L69.115 51.18L49.09 25H52.11C54.1725 25 56.12 25.9625 57.3725 27.6L72.2575 47.0625L87.1425 27.6C88.395 25.96 90.3426 25 92.4051 25H95.425ZM100.485 22.5H95.425H92.4051C89.5826 22.5 86.8725 23.84 85.1575 26.0825L72.26 42.95L59.3626 26.0825C57.6451 23.84 54.935 22.5 52.1125 22.5H49.0925H44.0326L47.105 26.5175L65.965 51.18L47 75.98L43.925 80H48.985H52.005C54.8275 80 57.5376 78.66 59.2526 76.4175L72.2575 59.41L85.2625 76.4175C86.9775 78.66 89.6876 80 92.5126 80H95.5326H100.593L97.52 75.9825L78.5551 51.1825L97.415 26.52L100.485 22.5Z" fill="#66798F"/>
<path d="M25 81.25C11.905 81.25 1.25 70.2275 1.25 56.68V45.8175C1.25 32.2725 11.905 21.25 25 21.25C38.095 21.25 48.75 32.27 48.75 45.8175V56.2475L8.75 56.25V56.68C8.75 66.0925 16.04 73.75 25 73.75C29.9425 73.75 34.7325 71.26 37.8125 67.0925C39.3825 64.965 41.69 63.7475 44.1425 63.7475H47.815L47.195 65.43C43.71 74.8925 34.7925 81.25 25 81.25ZM41.25 48.75V45.8175C41.25 36.405 33.96 28.75 25 28.75C16.04 28.75 8.75 36.405 8.75 45.8175V48.75H41.25Z" fill="#B0C1D4"/>
<path d="M25 22.5C37.405 22.5 47.5 32.9625 47.5 45.8175V55H7.5V56.68C7.5 66.7825 15.35 75 25 75C30.47 75 35.5575 72.245 38.8175 67.835C40.0875 66.1175 42.005 65 44.1425 65H46.0225L46.025 65.0025C42.72 73.9725 34.265 80.0025 25 80.0025C12.595 80.0025 2.5 69.54 2.5 56.6825V45.82C2.5 32.9625 12.595 22.5 25 22.5ZM7.5 50H42.5V45.8175C42.5 35.7175 34.65 27.5 25 27.5C15.35 27.5 7.5 35.7175 7.5 45.8175V50ZM25 20C11.215 20 0 31.5825 0 45.8175V56.68C0 70.9175 11.215 82.5 25 82.5C35.3125 82.5 44.7025 75.815 48.37 65.865L49.6075 62.505L46.0275 62.5H44.145C41.29 62.5 38.6175 63.9025 36.8075 66.35C33.96 70.2 29.5475 72.5 25 72.5C16.99 72.5 10.425 65.8425 10.02 57.5H47.5H50V55V45.82C50 31.5825 38.785 20 25 20ZM10 47.5V45.8175C10 37.095 16.73 30 25 30C33.27 30 40 37.095 40 45.8175V47.5H10Z" fill="#66798F"/>
</g>
<defs>
<clipPath id="clip0_233_10">
<rect width="100" height="100" fill="white"/>
</clipPath>
</defs>
</svg>
