<svg width="24" height="24" viewBox="0 0 24 24" fill="none" xmlns="http://www.w3.org/2000/svg">
<path d="M4 18.5001L11.617 4.21808C11.7775 3.91708 12.2115 3.92258 12.364 4.22808L15 9.50008L4 18.5001Z" fill="#FF8F00"/>
<path d="M4 18.4961L6.773 1.39658C6.8455 0.94908 7.4465 0.85208 7.6565 1.25408L13 11.4961L4 18.4961Z" fill="#FFA000"/>
<path d="M4.00391 18.4931L4.10391 18.4146L12.8684 11.2441L10.3964 6.5061L4.00391 18.4931Z" fill="#FF6F00"/>
<path d="M4 18.5001L17.333 5.64357C17.6125 5.37407 18.079 5.53307 18.136 5.91707L20 18.5001L12.5 22.8716C12.1955 23.0426 11.824 23.0426 11.5195 22.8716L4 18.5001Z" fill="#FFC400"/>
</svg>
