<svg width="48" height="48" viewBox="0 0 48 48" fill="none" xmlns="http://www.w3.org/2000/svg">
<path d="M47.9729 10.8589C47.9907 10.9228 48 10.9888 48 11.0551V21.3582C48 21.6274 47.8518 21.876 47.6114 22.0099L38.7091 26.9886V36.8569C38.7091 37.1255 38.5622 37.3734 38.3225 37.5086L19.7398 47.9C19.6973 47.9234 19.6509 47.9385 19.6045 47.9544C19.5871 47.9601 19.5706 47.9704 19.5523 47.9751C19.4224 48.0083 19.2858 48.0083 19.1559 47.9751C19.1347 47.9694 19.1153 47.9582 19.095 47.9507C19.0525 47.9356 19.008 47.9225 18.9674 47.9L0.388609 37.5086C0.148382 37.3746 0 37.126 0 36.8569V5.94771C0 5.8801 0.0096669 5.81437 0.0270673 5.75052C0.0328674 5.72892 0.0464011 5.7092 0.0541346 5.6876C0.0686349 5.64816 0.0821686 5.60778 0.103436 5.57116C0.117936 5.54675 0.139203 5.52703 0.156604 5.50449C0.178838 5.47444 0.199138 5.44345 0.225239 5.41716C0.247473 5.39556 0.276473 5.3796 0.301607 5.36082C0.329641 5.33828 0.354775 5.31387 0.386676 5.29603H0.387643L9.67753 0.100356C9.91691 -0.0334519 10.2115 -0.0334519 10.4509 0.100356L19.7408 5.29603H19.7427C19.7736 5.31481 19.7997 5.33828 19.8278 5.35988C19.8529 5.37866 19.8809 5.39556 19.9032 5.41622C19.9302 5.44345 19.9496 5.47444 19.9728 5.50449C19.9892 5.52703 20.0114 5.54675 20.025 5.57116C20.0472 5.60872 20.0598 5.64816 20.0752 5.6876C20.083 5.7092 20.0965 5.72892 20.1023 5.75146C20.1201 5.81545 20.1292 5.88143 20.1294 5.94771V25.2533L27.8706 20.9234V11.0542C27.8706 10.9884 27.8803 10.9218 27.8977 10.8589C27.9045 10.8363 27.917 10.8166 27.9248 10.795C27.9402 10.7556 27.9538 10.7152 27.975 10.6786C27.9895 10.6541 28.0108 10.6344 28.0272 10.6119C28.0504 10.5818 28.0698 10.5509 28.0968 10.5246C28.1191 10.503 28.1471 10.487 28.1722 10.4682C28.2012 10.4457 28.2264 10.4213 28.2573 10.4034H28.2583L37.5491 5.20776C37.7884 5.07376 38.0831 5.07376 38.3225 5.20776L47.6124 10.4034C47.6452 10.4222 47.6704 10.4457 47.6994 10.4673C47.7235 10.4861 47.7516 10.503 47.7738 10.5236C47.8009 10.5509 47.8202 10.5818 47.8434 10.6119C47.8608 10.6344 47.8821 10.6541 47.8956 10.6786C47.9178 10.7152 47.9304 10.7556 47.9459 10.795C47.9546 10.8166 47.9671 10.8363 47.9729 10.8589ZM46.4514 20.9234V12.3557L43.2004 14.1736L38.7091 16.6856V25.2533L46.4523 20.9234H46.4514ZM37.1615 36.4222V27.8488L32.7437 30.2997L20.1284 37.2936V45.9477L37.1615 36.4222ZM1.54864 7.24828V36.4222L18.5798 45.9468V37.2945L9.68236 32.4031L9.67946 32.4012L9.67559 32.3993C9.64563 32.3824 9.62049 32.358 9.59246 32.3374C9.56829 32.3186 9.54026 32.3036 9.51899 32.2829L9.51706 32.2801C9.49192 32.2566 9.47452 32.2275 9.45326 32.2012C9.43392 32.1758 9.41072 32.1543 9.39526 32.128L9.39429 32.1251C9.37689 32.097 9.36625 32.0632 9.35369 32.0312C9.34112 32.0031 9.32469 31.9768 9.31695 31.9467V31.9458C9.30729 31.9101 9.30535 31.8725 9.30149 31.8359C9.29762 31.8077 9.28989 31.7796 9.28989 31.7514V31.7495V11.5782L4.79961 9.0653L1.54864 7.24921V7.24828ZM10.0652 1.61971L2.32489 5.94771L10.0632 10.2757L17.8026 5.94678L10.0632 1.61971H10.0652ZM14.0905 28.6301L18.5807 26.1191V7.24828L15.3298 9.06624L10.8385 11.5782V30.449L14.0905 28.6301ZM37.9358 6.72711L30.1965 11.0551L37.9358 15.3831L45.6741 11.0542L37.9358 6.72711ZM37.1615 16.6856L32.6702 14.1736L29.4193 12.3557V20.9234L33.9095 23.4344L37.1615 25.2533V16.6856ZM19.3531 35.993L30.705 29.6977L36.3794 26.552L28.6459 22.2268L19.7417 27.2065L11.6264 31.7448L19.3531 35.993Z" fill="#FF2D20"/>
</svg>
