<svg width="48" height="48" viewBox="0 0 48 48" fill="none" xmlns="http://www.w3.org/2000/svg">
<path d="M0.002 35.041H1.922V27.956L4.589 34.013C4.918 34.768 5.368 35.035 6.251 35.035C7.134 35.035 7.566 34.768 7.895 34.013L10.562 28.111V35.041H12.482V27.783C12.482 27.086 12.205 26.748 11.633 26.574C10.266 26.144 9.348 26.515 8.933 27.446L6.198 33.606L3.549 27.446C3.151 26.516 2.217 26.144 0.849 26.574C0.277 26.748 0 27.085 0 27.782V35.04L0.002 35.041ZM13.441 29.281H15.361V33.336C15.346 33.536 15.425 34.067 16.351 34.081C16.823 34.089 19.172 34.081 19.201 34.081V29.281H21.121C21.129 29.281 21.121 35.249 21.121 35.274C21.131 36.746 19.293 36.936 18.448 36.961H13.442V36.001C13.452 36.001 18.229 36.002 18.243 36.001C19.331 35.886 19.202 35.287 19.202 35.105V35.041H16.19C14.52 35.026 13.455 34.29 13.443 33.451C13.441 33.373 13.479 29.317 13.441 29.281Z" fill="url(#paint0_linear_74_54)"/>
<path d="M22.081 35.041H26.888C27.518 35.041 28.13 34.909 28.616 34.681C29.426 34.309 29.76 33.806 29.76 33.145V31.777C29.76 30.301 27.93 30.241 26.88 30.241H24.96C24.205 30.241 24.09 29.785 24 29.281V28.321C24.09 27.937 24.258 27.421 24.923 27.361C25.696 27.361 29.759 27.361 29.759 27.361V26.401H25.193C24.438 26.401 22.079 26.491 22.079 28.321V29.508C22.079 30.348 22.817 31.032 24.419 31.2C24.599 31.212 24.779 31.224 24.958 31.224C24.958 31.224 26.824 31.188 26.878 31.2C27.958 31.2 27.838 32.04 27.838 32.16V33.12C27.838 33.252 27.808 34.08 26.867 34.08C26.795 34.08 22.078 34.08 22.078 34.08V35.041H22.081ZM40.32 33.08C40.32 34.239 40.975 34.889 42.712 35.019C42.874 35.03 43.037 35.04 43.2 35.04H48V34.08H43.565C42.574 34.08 42.24 33.664 42.24 33.069V26.4H40.32V33.08ZM30.704 33.121V28.321C30.704 27.301 31.204 26.597 32.62 26.401H33.292H36.739H37.264C38.68 26.597 39.344 27.3 39.344 28.321V33.103C39.344 33.93 39.129 34.374 38.428 34.662L39.916 36H37.756L36.686 35.04H35.429L33.293 35.052C32.984 35.052 32.658 35.009 32.3 34.911C31.226 34.618 30.704 34.054 30.704 33.121ZM32.624 33.121C32.722 33.588 33.097 34.081 33.764 34.081H35.628L34.56 33.121H36.735L37.254 33.603C37.254 33.603 37.44 33.451 37.44 33.121C37.44 32.791 37.424 28.321 37.424 28.321C37.326 27.887 36.886 27.361 36.236 27.361H33.765C33.016 27.361 32.625 27.909 32.625 28.419L32.624 33.121Z" fill="url(#paint1_linear_74_54)"/>
<path d="M46.1989 25.389C45.1679 25.361 44.3809 25.457 43.7079 25.74C43.5169 25.821 43.2119 25.823 43.1799 26.063C43.2849 26.173 43.3009 26.338 43.3849 26.473C43.5449 26.733 43.8169 27.082 44.0589 27.264C44.3239 27.464 44.5969 27.678 44.8799 27.851C45.3839 28.158 45.9469 28.334 46.4329 28.642C46.7189 28.823 47.0029 29.053 47.2829 29.257C47.4209 29.359 47.5129 29.516 47.6929 29.58C47.6929 29.57 47.6929 29.561 47.6929 29.551C47.5989 29.431 47.5739 29.266 47.4879 29.14C47.3609 29.013 47.2339 28.886 47.1069 28.759C46.7349 28.265 46.2609 27.83 45.7589 27.47C45.3579 27.182 44.4609 26.793 44.2929 26.327C44.2829 26.317 44.2739 26.308 44.2629 26.297C44.5469 26.265 44.8799 26.162 45.1419 26.092C45.5829 25.974 45.9759 26.005 46.4309 25.887C46.6359 25.828 46.8409 25.77 47.0459 25.711C47.0459 25.672 47.0459 25.633 47.0459 25.594C46.8159 25.358 46.6509 25.046 46.4009 24.832C45.7439 24.273 45.0279 23.715 44.2909 23.249C43.8819 22.991 43.3759 22.823 42.9429 22.604C42.7969 22.53 42.5409 22.492 42.4449 22.37C42.2169 22.08 42.0939 21.711 41.9179 21.374C41.5499 20.666 41.1879 19.892 40.8629 19.147C40.6399 18.639 40.4949 18.137 40.2179 17.681C38.8869 15.493 37.4539 14.172 35.2359 12.874C34.7639 12.598 34.1949 12.489 33.5939 12.346C33.2709 12.327 32.9489 12.307 32.6259 12.287C32.4289 12.204 32.2249 11.964 32.0389 11.847C31.3039 11.382 29.4179 10.372 28.8739 11.7C28.5299 12.538 29.3879 13.356 29.6949 13.781C29.9099 14.079 30.1859 14.413 30.3399 14.749C30.4409 14.969 30.4589 15.19 30.5449 15.423C30.7579 15.997 31.0949 16.651 31.3709 17.182C31.5099 17.451 31.6639 17.733 31.8399 17.973C31.9479 18.12 32.1329 18.185 32.1629 18.413C31.9819 18.666 31.9719 19.059 31.8699 19.381C31.4119 20.826 31.5849 22.621 32.2509 23.689C32.4549 24.017 32.9369 24.721 33.5989 24.451C34.1779 24.215 34.0489 23.484 34.2139 22.839C34.2509 22.693 34.2279 22.586 34.3019 22.488C34.3019 22.498 34.3019 22.507 34.3019 22.518C34.4779 22.869 34.6529 23.222 34.8299 23.573C35.2209 24.202 35.9139 24.859 36.4999 25.303C36.8039 25.533 37.0439 25.931 37.4379 26.065C37.4379 26.055 37.4379 26.046 37.4379 26.035C37.4279 26.035 37.4189 26.035 37.4079 26.035C37.3319 25.916 37.2119 25.867 37.1149 25.771C36.8859 25.546 36.6299 25.267 36.4409 25.009C35.9069 24.284 35.4349 23.49 35.0049 22.664C34.7999 22.269 34.6209 21.835 34.4479 21.433C34.3809 21.278 34.3819 21.044 34.2429 20.964C34.0529 21.258 33.7749 21.496 33.6279 21.843C33.3939 22.398 33.3629 23.076 33.2769 23.777C33.2249 23.795 33.2479 23.783 33.2179 23.806C32.8099 23.707 32.6659 23.288 32.5139 22.927C32.1299 22.015 32.0589 20.547 32.3969 19.498C32.4839 19.226 32.8789 18.371 32.7199 18.12C32.6439 17.869 32.3919 17.724 32.2519 17.533C32.0769 17.297 31.9039 16.985 31.7829 16.712C31.4689 16.001 31.1709 15.174 30.8399 14.455C30.6819 14.111 30.4149 13.764 30.1949 13.459C29.9519 13.121 29.6789 12.872 29.4909 12.463C29.4239 12.318 29.3329 12.085 29.4319 11.935C29.4639 11.834 29.5079 11.792 29.6079 11.759C29.7779 11.627 30.2509 11.802 30.4289 11.876C30.8989 12.071 31.2909 12.257 31.6889 12.521C31.8799 12.648 32.0729 12.893 32.3039 12.961C32.3919 12.961 32.4799 12.961 32.5679 12.961C32.9809 13.056 33.4429 12.991 33.8279 13.108C34.5099 13.315 35.1199 13.637 35.6739 13.987C37.3639 15.054 38.7449 16.572 39.6899 18.384C39.8419 18.676 39.9079 18.954 40.0409 19.263C40.3109 19.887 40.6519 20.529 40.9199 21.139C41.1879 21.748 41.4499 22.362 41.8289 22.869C42.0289 23.135 42.7989 23.278 43.1479 23.426C43.3929 23.53 43.7949 23.637 44.0269 23.777C44.4709 24.045 44.9009 24.364 45.3159 24.656C45.5279 24.803 46.1669 25.124 46.1989 25.389Z" fill="url(#paint2_linear_74_54)"/>
<path d="M33.0979 14.223C32.8829 14.219 32.7309 14.246 32.5699 14.282C32.5699 14.292 32.5699 14.3011 32.5699 14.3121C32.5799 14.3121 32.5889 14.3121 32.5999 14.3121C32.7029 14.5221 32.8829 14.6591 33.0099 14.8401C33.1079 15.0451 33.2049 15.25 33.3029 15.455C33.3129 15.445 33.3219 15.436 33.3319 15.426C33.5129 15.298 33.5969 15.0941 33.5959 14.7811C33.5229 14.7041 33.5119 14.6081 33.4489 14.5171C33.3649 14.3941 33.2029 14.325 33.0979 14.223Z" fill="#00796B"/>
<defs>
<linearGradient id="paint0_linear_74_54" x1="9.8" y1="25.236" x2="11.081" y2="36.899" gradientUnits="userSpaceOnUse">
<stop stop-color="#058F92"/>
<stop offset="0.5" stop-color="#038489"/>
<stop offset="1" stop-color="#026D71"/>
</linearGradient>
<linearGradient id="paint1_linear_74_54" x1="34.224" y1="25.644" x2="35.101" y2="35.217" gradientUnits="userSpaceOnUse">
<stop stop-color="#FF9C0F"/>
<stop offset="0.813" stop-color="#D67E00"/>
</linearGradient>
<linearGradient id="paint2_linear_74_54" x1="35.0289" y1="11.716" x2="40.3549" y2="26.75" gradientUnits="userSpaceOnUse">
<stop stop-color="#058F92"/>
<stop offset="0.5" stop-color="#038489"/>
<stop offset="1" stop-color="#026D71"/>
</linearGradient>
</defs>
</svg>
