<svg width="48" height="48" viewBox="0 0 48 48" fill="none" xmlns="http://www.w3.org/2000/svg">
<path d="M17.204 21.1218L12.297 23.8368C12.113 23.9378 12 24.1258 12 24.3288V29.7618C12 29.9648 12.113 30.1518 12.297 30.2538L17.205 32.9708C17.388 33.0718 17.615 33.0718 17.798 32.9708L22.705 30.2538C22.887 30.1518 23 29.9648 23 29.7618V24.3288C23 24.1258 22.887 23.9388 22.703 23.8368L17.797 21.1218C17.705 21.0708 17.602 21.0458 17.5 21.0458C17.397 21.0458 17.295 21.0708 17.203 21.1218M42.451 26.0128L41.633 26.4648C41.602 26.4818 41.584 26.5128 41.584 26.5468V27.4528C41.584 27.4868 41.603 27.5178 41.633 27.5348L42.451 27.9878C42.482 28.0048 42.519 28.0048 42.55 27.9878L43.368 27.5348C43.398 27.5178 43.417 27.4868 43.417 27.4528V26.5468C43.417 26.5128 43.398 26.4818 43.367 26.4648L42.549 26.0128C42.534 26.0038 42.517 25.9998 42.5 25.9998C42.483 25.9998 42.466 26.0038 42.451 26.0128Z" fill="#388E3C"/>
<path d="M35.751 15.3638L33.362 14.0308C33.287 13.9888 33.195 13.9898 33.121 14.0338C33.047 14.0778 33.001 14.1568 33.001 14.2428L33 22.2948L30.797 21.0758C30.705 21.0248 30.602 20.9998 30.5 20.9998C30.398 20.9998 30.295 21.0248 30.203 21.0758H30.204L25.297 23.7908C25.113 23.8918 25 24.0798 25 24.2818V29.7148C25 29.9178 25.113 30.1048 25.297 30.2068L30.205 32.9238C30.388 33.0248 30.615 33.0248 30.798 32.9238L35.705 30.2068C35.887 30.1058 36 29.9178 36 29.7148V15.7878C36 15.6118 35.904 15.4498 35.751 15.3638ZM32.866 28.4578L30.636 29.6928C30.553 29.7388 30.45 29.7388 30.367 29.6928L28.136 28.4578C28.051 28.4118 28 28.3258 28 28.2338V25.7638C28 25.6718 28.051 25.5868 28.135 25.5398L30.366 24.3058C30.408 24.2828 30.453 24.2718 30.5 24.2718C30.547 24.2718 30.593 24.2838 30.635 24.3058L32.865 25.5398C32.949 25.5868 33 25.6728 33 25.7648V28.2348C33 28.3258 32.949 28.4118 32.866 28.4578Z" fill="#37474F"/>
<path d="M17.204 21.1218L12 29.7618C12 29.9648 12.113 30.1518 12.297 30.2538L17.205 32.9708C17.388 33.0718 17.615 33.0718 17.798 32.9708L23 24.3288C23 24.1258 22.887 23.9388 22.703 23.8368L17.797 21.1218C17.705 21.0708 17.602 21.0458 17.5 21.0458C17.397 21.0458 17.295 21.0708 17.203 21.1218" fill="#2E7D32"/>
<path d="M17.204 21.1218L12.297 23.8368C12.113 23.9378 12 24.1258 12 24.3288L17.204 32.9708C17.387 33.0718 17.614 33.0718 17.797 32.9708L22.704 30.2538C22.887 30.1518 23 29.9648 23 29.7618L17.797 21.1218C17.705 21.0708 17.602 21.0458 17.5 21.0458C17.397 21.0458 17.295 21.0708 17.203 21.1218" fill="#4CAF50"/>
<path d="M47.703 23.7908L42.797 21.0758C42.705 21.0248 42.602 20.9998 42.5 20.9998C42.398 20.9998 42.295 21.0248 42.203 21.0758L37.297 23.7908C37.114 23.8918 37 24.0838 37 24.2938V29.7048C37 29.9138 37.114 30.1068 37.297 30.2078L42.205 32.9248C42.389 33.0268 42.614 33.0268 42.798 32.9248L45.061 31.6718C45.268 31.5568 45.267 31.2598 45.059 31.1458L40.135 28.4588C40.052 28.4118 40 28.3248 40 28.2308V25.7648C40 25.6728 40.05 25.5878 40.13 25.5438L42.365 24.3078H42.364C42.406 24.2848 42.452 24.2738 42.499 24.2738C42.546 24.2738 42.592 24.2858 42.634 24.3078L44.869 25.5448C44.949 25.5888 44.999 25.6738 44.999 25.7658V27.7778C44.999 27.8638 45.045 27.9438 45.12 27.9868C45.195 28.0288 45.287 28.0288 45.362 27.9858L47.76 26.5928C47.908 26.5068 48 26.3478 48 26.1758V24.2958C48 24.0848 47.886 23.8918 47.703 23.7908ZM10.703 23.7908L5.797 21.0758C5.705 21.0248 5.602 20.9998 5.5 20.9998C5.398 20.9998 5.295 21.0248 5.203 21.0758L0.297 23.7908C0.114 23.8918 0 24.0838 0 24.2938V31.7588C0 31.8448 0.046 31.9248 0.121 31.9678C0.196 32.0098 0.288 32.0098 0.363 31.9668L2.761 30.5738C2.909 30.4878 3 30.3288 3 30.1568V25.7638C3 25.6718 3.05 25.5868 3.13 25.5428L5.365 24.3068C5.407 24.2838 5.453 24.2728 5.5 24.2728C5.547 24.2728 5.593 24.2848 5.635 24.3068L7.87 25.5438C7.95 25.5878 8 25.6728 8 25.7648V30.1578C8 30.3298 8.091 30.4888 8.24 30.5748L10.638 31.9678C10.713 32.0108 10.805 32.0108 10.88 31.9688C10.954 31.9248 11 31.8448 11 31.7588V24.2948C11 24.0848 10.886 23.8918 10.703 23.7908Z" fill="#37474F"/>
</svg>
