<svg width="100" height="100" viewBox="0 0 100 100" fill="none" xmlns="http://www.w3.org/2000/svg">
<path d="M83.242 60.482C76.893 62.406 73.285 60.067 73.285 60.067H73.278L72.884 59.579C73.015 59.462 73.148 59.337 73.284 59.198L73.303 59.181L73.302 59.179C78.941 53.426 89.14 29.617 83.051 21.801C74.498 10.822 57.391 16.056 57.391 16.056L57.455 16.239C52.566 14.573 47.508 14.614 43.604 17.077C42.943 17.494 42.331 17.95 41.76 18.434L41.774 18.247C41.774 18.247 33.625 15.034 25.923 15.864C17.969 16.721 13.604 22.694 13.604 31.694C13.604 40.694 19.774 62.247 23.774 66.247C27.774 70.247 29.774 68.247 30.774 67.247C31.67 66.351 37.362 59.86 38.545 58.509C40.688 59.909 43.12 60.252 44.528 60.257C44.344 61.248 43.218 65.245 36.966 65.971C34.157 66.418 35.051 68.269 37.094 68.843C39.096 69.406 45.509 70.81 49.429 65.334C49.377 68.731 49.246 75.105 49.733 80.46C50.307 86.779 53.716 88.836 56.244 89.173C64.122 90.221 66.872 84.865 67.638 82.471C68.34 80.277 69.477 71.662 69.851 65.883L70.354 65.794L70.35 65.844C78.456 67.121 83.084 64.184 84.712 62.653C86.338 61.12 85.349 59.844 83.242 60.482Z" fill="#6E78AC"/>
<path d="M39 57.9999C39 57.9999 32.25 65.5619 31.25 66.5619C30.25 67.5619 28.25 69.5619 24.25 65.5619C20.25 61.5619 14 40.5619 14 31.5619C14 22.5619 18.234 16.0439 26.188 15.1869C33.89 14.3579 42 17.9999 42 17.9999" stroke="#1F212B" stroke-width="2" stroke-miterlimit="10"/>
<path d="M71.213 56.9471C73.894 54.8411 74.181 48.2341 73.702 44.2131C73.223 40.1921 74.033 37.8211 73.937 32.9381C70.682 19.6291 53.612 10.8391 43.75 17.0621C33.888 23.2851 34.896 37.1991 35.375 41.1241C35.854 45.0491 32.931 47.6631 34.75 53.3121C36.569 58.9611 42.394 60.0101 44.787 60.0101C47.181 60.0101 49.67 60.9671 49.67 63.5531C49.67 66.1391 49.383 73.8931 49.957 80.2131C50.531 86.5321 53.94 88.5891 56.468 88.9261C64.346 89.9741 67.096 84.6171 67.862 82.2241C68.628 79.8311 69.914 69.7851 70.16 64.1281C70.351 59.7241 73.511 59.8191 73.511 59.8191C73.511 59.8191 77.119 62.1581 83.468 60.2341C85.574 59.5961 86.564 60.8721 84.936 62.4041C83.308 63.9361 78.919 66.964 70.812 65.687" stroke="#1F212B" stroke-width="2" stroke-miterlimit="10"/>
<path d="M74.085 33.617C74.085 33.617 67.562 31.375 65.375 35.812C63.482 39.653 69.362 54.106 73.574 59.404" stroke="#1F212B" stroke-width="2" stroke-miterlimit="10"/>
<path d="M34.574 36.6171C34.574 36.6171 42.226 32.0051 46.375 34.7501C50.524 37.4951 48.936 48.1061 47.149 52.0001C45.362 55.8941 44.787 59.7871 44.787 59.7871C44.787 59.7871 44.34 64.8931 37.191 65.7231C34.382 66.1701 35.276 68.0211 37.319 68.5951C39.362 69.1691 46 70.6381 49.893 64.7651" stroke="#1F212B" stroke-width="2" stroke-miterlimit="10"/>
<path d="M57.6169 15.8091C57.6169 15.8091 74.9729 11.6351 82.9999 21.4381C89.5529 29.4411 78.2339 55.3201 72.8089 59.5961" stroke="#1F212B" stroke-width="2" stroke-miterlimit="10" stroke-linecap="round"/>
<path d="M69.154 38.0369C67.502 38.2049 65.731 36.0979 69.058 35.6909C72.177 35.3099 71.323 37.8169 69.154 38.0369Z" fill="#1F212B"/>
<path d="M43.223 38.848C41.399 38.618 40.011 35.903 43.704 36.292C47.165 36.657 45.619 39.151 43.223 38.848Z" fill="#1F212B"/>
<path d="M39.492 27.447C39.256 28.135 39.041 28.872 38.851 29.66" stroke="#1F212B" stroke-miterlimit="10" stroke-linecap="round" stroke-linejoin="round"/>
<path d="M47.808 18.479C45.019 19.355 42.037 21.418 40.077 25.935" stroke="#1F212B" stroke-miterlimit="10" stroke-linecap="round" stroke-linejoin="round"/>
<path d="M55.064 18.2979C55.064 18.2979 52.954 17.6769 50.213 17.9789" stroke="#1F212B" stroke-miterlimit="10" stroke-linecap="round" stroke-linejoin="round"/>
<path d="M20.1481 21.817C18.2271 23.891 16.7791 27.268 16.9751 32.762" stroke="#1F212B" stroke-miterlimit="10" stroke-linecap="round" stroke-linejoin="round"/>
<path d="M28.319 18.553C28.319 18.553 24.902 18.295 21.816 20.386" stroke="#1F212B" stroke-miterlimit="10" stroke-linecap="round" stroke-linejoin="round"/>
<path d="M53.549 82.6C54.198 84.302 55.4069 85.866 57.6489 86.213" stroke="#1F212B" stroke-miterlimit="10" stroke-linecap="round" stroke-linejoin="round"/>
<path d="M52.83 77.5959C52.83 77.5959 52.735 78.9539 53.016 80.5969" stroke="#1F212B" stroke-miterlimit="10" stroke-linecap="round" stroke-linejoin="round"/>
</svg>
