<svg width="46" height="46" viewBox="0 0 46 46" fill="none" xmlns="http://www.w3.org/2000/svg">
<path d="M23 26.22C24.7784 26.22 26.22 24.7784 26.22 23C26.22 21.2217 24.7784 19.78 23 19.78C21.2217 19.78 19.78 21.2217 19.78 23C19.78 24.7784 21.2217 26.22 23 26.22Z" fill="#39C1D7"/>
<path d="M22.9999 26.6799C20.9709 26.6799 19.3199 25.029 19.3199 22.9999C19.3199 20.9709 20.9709 19.3199 22.9999 19.3199C25.029 19.3199 26.6799 20.9709 26.6799 22.9999C26.6799 25.029 25.029 26.6799 22.9999 26.6799ZM22.9999 20.2399C21.4778 20.2399 20.2399 21.4778 20.2399 22.9999C20.2399 24.5221 21.4778 25.7599 22.9999 25.7599C24.5221 25.7599 25.7599 24.5221 25.7599 22.9999C25.7599 21.4778 24.5221 20.2399 22.9999 20.2399Z" fill="#1F212B"/>
<path d="M40.71 22.9999C40.71 20.527 37.732 18.3866 33.1118 17.1129C34.2995 12.4687 33.9338 8.81676 31.8113 7.57752C30.9741 7.08854 29.9585 6.9993 28.7928 7.31118C27.0365 7.7813 25.024 9.15578 23 11.1747C20.976 9.15578 18.9635 7.78176 17.2073 7.31118C16.0416 6.99884 15.0259 7.08854 14.1887 7.57752C12.0663 8.81676 11.7006 12.4682 12.8883 17.1129C8.26808 18.3866 5.29004 20.527 5.29004 22.9999C5.29004 25.4729 8.26808 27.6133 12.8883 28.8875C11.7006 33.5316 12.0663 37.1836 14.1887 38.4228C14.7003 38.7214 15.278 38.8718 15.9165 38.8713C16.3227 38.8713 16.7537 38.8106 17.2073 38.6892C18.9635 38.2186 20.976 36.8446 23 34.8256C25.024 36.8446 27.0365 38.2186 28.7928 38.6892C29.2464 38.8106 29.6774 38.8713 30.0836 38.8713C30.7221 38.8713 31.2998 38.7218 31.8113 38.4228C33.9338 37.1836 34.299 33.5316 33.1118 28.8875C37.732 27.6133 40.71 25.4729 40.71 22.9999ZM29.1498 8.6438C29.4833 8.55502 29.7924 8.50994 30.0771 8.50994C30.4727 8.50994 30.8205 8.59642 31.1154 8.76892C32.5377 9.59968 32.8279 12.6421 31.7686 16.778C30.309 16.4495 28.7165 16.2025 27.0241 16.0498C26.031 14.6178 24.9978 13.3142 23.9568 12.1725C25.8051 10.32 27.6184 9.05412 29.1498 8.6438ZM27.9473 25.8975C27.405 26.8478 26.8341 27.7582 26.2486 28.6294C25.209 28.7072 24.1252 28.7499 23 28.7499C21.8749 28.7499 20.7911 28.7072 19.752 28.6294C19.1664 27.7582 18.5955 26.8478 18.0532 25.8975C17.4925 24.9149 16.9892 23.9471 16.5384 23.0004C16.9892 22.0537 17.4925 21.0859 18.0532 20.1029C18.596 19.152 19.1664 18.2417 19.7524 17.3705C20.7916 17.2927 21.8749 17.2499 23 17.2499C24.1252 17.2499 25.2085 17.2927 26.2481 17.3705C26.8337 18.2417 27.4045 19.1525 27.9473 20.1029C28.5081 21.0854 29.0113 22.0533 29.4621 23.0004C29.0113 23.9471 28.5081 24.9149 27.9473 25.8975ZM30.1963 24.6306C30.6751 25.7627 31.0707 26.8524 31.3909 27.8884C30.3444 28.1216 29.2146 28.3162 28.0081 28.4601C28.3954 27.8502 28.7772 27.2264 29.1456 26.581C29.5187 25.9283 29.8669 25.2774 30.1963 24.6306ZM23 32.8242C22.2475 31.992 21.4963 31.0706 20.7626 30.0738C21.4949 30.1092 22.2401 30.1299 23 30.1299C23.76 30.1299 24.5052 30.1092 25.2375 30.0738C24.5038 31.0702 23.7526 31.9916 23 32.8242ZM17.9916 28.4601C16.7854 28.3162 15.6552 28.1216 14.6087 27.8884C14.9289 26.8524 15.3245 25.7622 15.8033 24.6306C16.1327 25.2774 16.4814 25.9283 16.854 26.581C17.2229 27.2269 17.6042 27.8506 17.9916 28.4601ZM15.8038 21.3697C15.3249 20.2376 14.9289 19.1474 14.6092 18.1111C15.6557 17.8778 16.7859 17.6833 17.9925 17.5393C17.6047 18.1492 17.2234 18.7735 16.8549 19.4188C16.4814 20.072 16.1332 20.7229 15.8038 21.3697ZM23 13.1762C23.7526 14.0083 24.5038 14.9297 25.2375 15.9265C24.5052 15.8906 23.76 15.8699 23 15.8699C22.2401 15.8699 21.4949 15.8906 20.7626 15.9261C21.4963 14.9297 22.2475 14.0083 23 13.1762ZM29.1456 19.4193C28.7772 18.7735 28.3954 18.1497 28.0081 17.5397C29.2146 17.6837 30.3444 17.8783 31.3914 18.1115C31.0712 19.1479 30.6756 20.2376 30.1967 21.3702C29.8669 20.7229 29.5187 20.072 29.1456 19.4193ZM14.8847 8.76892C15.18 8.59642 15.5269 8.50994 15.9229 8.50994C16.2072 8.50994 16.5173 8.55502 16.8503 8.6438C18.3816 9.05412 20.195 10.3196 22.0432 12.172C21.0023 13.3137 19.9691 14.6178 18.976 16.0493C17.2836 16.2021 15.6906 16.4491 14.2315 16.7775C13.1721 12.6417 13.4624 9.59922 14.8847 8.76892ZM6.67004 22.9999C6.67004 21.3458 9.1545 19.5775 13.2641 18.4455C13.7099 19.8986 14.295 21.429 15.0149 22.9999C14.295 24.5708 13.7099 26.1013 13.2641 27.5544C9.1545 26.4223 6.67004 24.6541 6.67004 22.9999ZM16.8503 37.3561C16.0531 37.5686 15.3921 37.5267 14.8847 37.2314C13.4624 36.4007 13.1726 33.3582 14.2315 29.2224C15.6906 29.5508 17.2836 29.7978 18.9755 29.9505C19.9686 31.3825 21.0018 32.6862 22.0428 33.8283C20.195 35.6803 18.3816 36.9458 16.8503 37.3561ZM31.1154 37.2314C30.608 37.5277 29.9474 37.5691 29.1498 37.3561C27.6184 36.9458 25.8051 35.6803 23.9568 33.8279C24.9978 32.6862 26.031 31.3821 27.0241 29.9501C28.7165 29.7974 30.309 29.5503 31.7681 29.2219C32.8279 33.3582 32.5377 36.4007 31.1154 37.2314ZM32.7359 27.5544C32.2902 26.1013 31.7051 24.5708 30.9852 22.9999C31.7051 21.429 32.2902 19.8982 32.7359 18.4455C36.8456 19.5775 39.33 21.3458 39.33 22.9999C39.33 24.6541 36.8456 26.4223 32.7359 27.5544Z" fill="#39C1D7"/>
<path d="M15.9138 39.1009C15.2371 39.1009 14.6179 38.9395 14.0733 38.6211C11.9426 37.3768 11.4131 33.8942 12.6114 29.0481C7.80856 27.6823 5.06006 25.484 5.06006 23C5.06006 20.516 7.80856 18.3177 12.611 16.9519C11.4131 12.1058 11.9426 8.62316 14.0733 7.37886C14.9648 6.85722 16.0389 6.7597 17.2671 7.08906C18.9774 7.54722 20.9563 8.84626 23.0001 10.8514C25.0443 8.84626 27.0232 7.54722 28.733 7.08906C29.9608 6.76062 31.0353 6.85814 31.9273 7.37886C34.0575 8.62316 34.587 12.1058 33.3892 16.9519C38.1916 18.3177 40.9401 20.516 40.9401 23C40.9401 25.484 38.1916 27.6823 33.3892 29.0481C34.587 33.8942 34.058 37.3764 31.9273 38.6211C31.0409 39.1386 29.9557 39.2385 28.7335 38.9109C27.0228 38.4528 25.0438 37.1537 23.0001 35.1491C20.9563 37.1537 18.9774 38.4532 17.2671 38.9109C16.7965 39.037 16.342 39.1009 15.9165 39.1009C15.9156 39.1009 15.9147 39.1009 15.9138 39.1009ZM15.9179 7.35954C15.3194 7.35954 14.7799 7.49846 14.3047 7.7763C12.3616 8.91112 11.9154 12.38 13.111 17.0559C13.1418 17.1773 13.07 17.3015 12.9491 17.3346C8.29754 18.6171 5.52006 20.7354 5.52006 23C5.52006 25.2646 8.29754 27.3829 12.9495 28.6654C13.0705 28.6985 13.1423 28.8227 13.1114 28.9441C11.9154 33.62 12.3616 37.0893 14.3047 38.2237C14.7785 38.5002 15.3199 38.6405 15.9138 38.6405C15.9147 38.6405 15.9156 38.6405 15.9165 38.6405C16.302 38.6405 16.716 38.582 17.1479 38.4666C18.8256 38.0172 20.7934 36.702 22.8377 34.6624C22.9274 34.5731 23.0727 34.5731 23.1624 34.6624C25.2067 36.7016 27.1746 38.0167 28.8522 38.4666C29.9534 38.7605 30.9153 38.6786 31.6954 38.2237C33.6385 37.0889 34.0847 33.62 32.8887 28.9441C32.8579 28.8227 32.9296 28.6985 33.0506 28.6654C37.7026 27.3829 40.4801 25.2646 40.4801 23C40.4801 20.7354 37.7026 18.6171 33.0506 17.3346C32.9296 17.3015 32.8579 17.1773 32.8887 17.0559C34.0842 12.38 33.638 8.91066 31.695 7.7763C30.9134 7.31952 29.9566 7.2381 28.8517 7.53342C27.1741 7.98284 25.2067 9.29798 23.162 11.3376C23.0723 11.4269 22.9269 11.4269 22.8372 11.3376C20.7925 9.29798 18.8251 7.98284 17.1475 7.53342C16.7146 7.4175 16.3043 7.35954 15.9179 7.35954ZM30.0776 37.7195C29.7726 37.7195 29.4433 37.6726 29.0905 37.5783C27.5582 37.1675 25.7269 35.9274 23.794 33.9903C23.7075 33.9034 23.7043 33.7635 23.7867 33.6729C24.8286 32.5303 25.8539 31.2335 26.8351 29.819C26.8737 29.7629 26.9354 29.727 27.0034 29.7211C28.665 29.5711 30.251 29.3278 31.718 28.9975C31.838 28.9703 31.9604 29.0439 31.9912 29.1649C33.0658 33.3615 32.7746 36.5286 31.2313 37.4297C30.9006 37.6229 30.5146 37.7195 30.0776 37.7195ZM24.2747 33.8197C26.0922 35.6109 27.7951 36.7549 29.2091 37.134C29.9447 37.3304 30.5473 37.2963 30.9995 37.0328C32.3128 36.2655 32.5437 33.3192 31.6002 29.4947C30.2073 29.7979 28.7128 30.0247 27.152 30.1696C26.2247 31.4999 25.2577 32.7262 24.2747 33.8197ZM15.9225 37.7195C15.4855 37.7195 15.0996 37.6229 14.7688 37.4302C13.2255 36.5286 12.9339 33.3615 14.0089 29.1649C14.0397 29.0444 14.1621 28.9722 14.2821 28.9975C15.7486 29.3278 17.3347 29.5711 18.9967 29.7211C19.0643 29.727 19.1264 29.7629 19.165 29.819C20.1462 31.2335 21.1716 32.5303 22.2135 33.6729C22.2963 33.7635 22.293 33.9034 22.2061 33.9903C20.2732 35.9269 18.4419 37.1675 16.9101 37.5783C16.5568 37.6722 16.227 37.7195 15.9225 37.7195ZM14.3999 29.4947C13.4564 33.3187 13.6874 36.2655 15.0007 37.0328C15.4524 37.2959 16.055 37.3304 16.791 37.134C18.205 36.7549 19.9079 35.6104 21.7254 33.8197C20.7428 32.7262 19.7759 31.4999 18.8486 30.1696C17.2878 30.0247 15.7928 29.7979 14.3999 29.4947ZM23.0001 33.0538C22.9352 33.0538 22.8731 33.0262 22.8294 32.9779C22.0644 32.1319 21.3068 31.2004 20.5772 30.2096C20.5248 30.1383 20.5179 30.0426 20.5598 29.9644C20.6016 29.8862 20.6798 29.8384 20.7737 29.8434C22.2944 29.9175 23.7057 29.9175 25.2265 29.8434C25.3185 29.8379 25.3985 29.8862 25.4404 29.9644C25.4822 30.0426 25.4758 30.1378 25.4229 30.2096C24.6933 31.2 23.9357 32.1315 23.1707 32.9779C23.127 33.0262 23.0649 33.0538 23.0001 33.0538ZM21.2369 30.325C21.8123 31.0863 22.4039 31.809 23.0001 32.4797C23.5967 31.809 24.1878 31.0868 24.7632 30.325C23.5617 30.371 22.4384 30.371 21.2369 30.325ZM23.0001 28.98C21.9103 28.98 20.8118 28.9395 19.7345 28.859C19.6641 28.854 19.6002 28.8167 19.5606 28.7578C18.9456 27.8429 18.3711 26.9187 17.8531 26.0116C17.3103 25.0603 16.7979 24.0805 16.3305 23.0989C16.3006 23.0363 16.3006 22.9637 16.3305 22.9011C16.7979 21.9195 17.3103 20.9397 17.8531 19.9884C18.3706 19.0822 18.9452 18.158 19.5611 17.2417C19.6002 17.1833 19.6646 17.146 19.735 17.1405C21.8896 16.9795 24.111 16.9795 26.2651 17.1405C26.3355 17.1456 26.3995 17.1828 26.439 17.2417C27.055 18.158 27.6295 19.0822 28.147 19.9884C28.6898 20.9397 29.2022 21.9195 29.6696 22.9011C29.6995 22.9637 29.6995 23.0363 29.6696 23.0989C29.2022 24.0805 28.6898 25.0603 28.147 26.0116C27.629 26.9187 27.0545 27.8429 26.4395 28.7578C26.4004 28.8162 26.336 28.8535 26.2656 28.859C25.1883 28.9395 24.0898 28.98 23.0001 28.98ZM19.8803 28.4082C21.9407 28.5563 24.0594 28.5563 26.1193 28.4082C26.7049 27.5328 27.2523 26.6501 27.7473 25.783C28.2661 24.8736 28.757 23.9379 29.2068 23C28.757 22.0621 28.2661 21.126 27.7473 20.217C27.2528 19.3508 26.7054 18.4681 26.1189 17.5913C24.0585 17.4432 21.9402 17.4432 19.8799 17.5913C19.2938 18.4681 18.746 19.3508 18.2515 20.217C17.7326 21.1264 17.2418 22.0621 16.7919 23C17.2418 23.9379 17.7326 24.874 18.2515 25.783C18.7474 26.6506 19.2948 27.5328 19.8803 28.4082ZM28.0085 28.6907C27.9303 28.6907 27.8563 28.6506 27.814 28.5835C27.7666 28.508 27.767 28.4124 27.8144 28.3374C28.2413 27.6653 28.6116 27.0535 28.946 26.4675C29.2975 25.852 29.6489 25.1988 29.9916 24.5267C30.0321 24.4472 30.1172 24.3998 30.2046 24.4016C30.2938 24.4048 30.3734 24.4591 30.4084 24.5419C30.8753 25.6455 31.2796 26.749 31.6108 27.8213C31.6301 27.8824 31.6223 27.9491 31.5901 28.0043C31.5579 28.06 31.5036 28.0996 31.4411 28.1134C30.3601 28.3549 29.2142 28.5485 28.0357 28.6893C28.0265 28.6902 28.0173 28.6907 28.0085 28.6907ZM30.1742 25.1763C29.901 25.6997 29.6231 26.209 29.3458 26.6952C29.0776 27.1653 28.7864 27.6515 28.4626 28.1713C29.3688 28.0508 30.252 27.8985 31.097 27.7173C30.8316 26.8829 30.5224 26.0314 30.1742 25.1763ZM17.9916 28.6907C17.9824 28.6907 17.9732 28.6902 17.964 28.6893C16.7859 28.5481 15.6401 28.3544 14.5591 28.1129C14.4965 28.0991 14.4427 28.0595 14.41 28.0039C14.3778 27.9482 14.3705 27.882 14.3893 27.8208C14.7205 26.7481 15.1249 25.645 15.5918 24.5415C15.6267 24.4591 15.7063 24.4044 15.7955 24.4012C15.8793 24.3924 15.968 24.4467 16.0085 24.5263C16.3512 25.1983 16.7027 25.8515 17.0541 26.467C17.389 27.0531 17.7593 27.6649 18.1857 28.3369C18.2335 28.4119 18.2335 28.5076 18.1862 28.583C18.1438 28.6506 18.0702 28.6907 17.9916 28.6907ZM14.9036 27.7173C15.7486 27.8985 16.6318 28.0508 17.538 28.1713C17.2137 27.6515 16.923 27.1653 16.6548 26.6952C16.377 26.209 16.0996 25.6993 15.8264 25.1763C15.4777 26.0314 15.1686 26.8829 14.9036 27.7173ZM32.736 27.7845C32.6371 27.7845 32.5464 27.7205 32.5161 27.6216C32.0676 26.1593 31.482 24.6367 30.7764 23.0961C30.7483 23.0354 30.7483 22.965 30.7764 22.9043C31.482 21.3638 32.0676 19.8407 32.5165 18.3779C32.5533 18.2588 32.6794 18.1921 32.7976 18.2238C36.9689 19.3734 39.5601 21.2032 39.5601 23C39.5601 24.7968 36.9684 26.6266 32.7967 27.7762C32.7764 27.7817 32.7557 27.7845 32.736 27.7845ZM31.2382 23C31.8988 24.4513 32.454 25.8874 32.8891 27.2725C36.6699 26.1947 39.1001 24.5281 39.1001 23C39.1001 21.4719 36.6699 19.8053 32.8891 18.7275C32.4535 20.113 31.8983 21.5492 31.2382 23ZM13.2642 27.7845C13.2439 27.7845 13.2237 27.7817 13.203 27.7762C9.0317 26.6266 6.44006 24.7968 6.44006 23C6.44006 21.2032 9.03124 19.3734 13.203 18.2238C13.3217 18.1921 13.4472 18.2588 13.484 18.3779C13.933 19.8407 14.5186 21.3638 15.2242 22.9043C15.2523 22.965 15.2523 23.035 15.2242 23.0961C14.5181 24.6371 13.933 26.1597 13.4845 27.6216C13.4541 27.7205 13.3631 27.7845 13.2642 27.7845ZM13.111 18.7275C9.33024 19.8053 6.90006 21.4719 6.90006 23C6.90006 24.5281 9.33024 26.1947 13.111 27.2725C13.5466 25.8874 14.1014 24.4518 14.7619 23C14.1018 21.5492 13.5466 20.113 13.111 18.7275ZM30.1968 21.6002C30.1103 21.6002 30.0312 21.5519 29.9916 21.4746C29.6434 20.7902 29.3011 20.1549 28.9465 19.5334C28.6125 18.9483 28.2422 18.3365 27.8144 17.6631C27.7666 17.5881 27.7666 17.4924 27.814 17.417C27.8613 17.342 27.946 17.3006 28.0361 17.3112C29.2151 17.4524 30.361 17.6461 31.442 17.8871C31.5045 17.9009 31.5584 17.9405 31.591 17.9961C31.6232 18.0518 31.6306 18.118 31.6117 18.1792C31.2801 19.2538 30.8753 20.3573 30.4093 21.4595C30.3743 21.5418 30.2947 21.5965 30.2055 21.5998C30.2018 21.6002 30.1991 21.6002 30.1968 21.6002ZM29.3453 19.3053C29.6264 19.7975 29.8996 20.298 30.1738 20.8242C30.5215 19.9704 30.8306 19.1181 31.0961 18.2827C30.251 18.1015 29.3678 17.9492 28.4612 17.8287C28.7869 18.3494 29.0776 18.8356 29.3453 19.3053ZM15.8034 21.6002C15.8006 21.6002 15.7978 21.6002 15.7951 21.6002C15.7058 21.597 15.6263 21.5427 15.5913 21.4599C15.1253 20.3578 14.7205 19.2542 14.3889 18.1797C14.3695 18.1185 14.3774 18.0518 14.4096 17.9966C14.4418 17.9409 14.496 17.9014 14.5586 17.8876C15.6396 17.6461 16.7855 17.4524 17.9644 17.3116C18.0541 17.3024 18.1392 17.3425 18.1866 17.4174C18.234 17.4929 18.2335 17.5886 18.1862 17.6635C17.7584 18.337 17.3881 18.9488 17.0541 19.5339C16.6994 20.1554 16.3572 20.7902 16.009 21.4751C15.969 21.5519 15.8898 21.6002 15.8034 21.6002ZM14.9036 18.2827C15.169 19.1181 15.4786 19.9704 15.8259 20.8242C16.1005 20.298 16.3733 19.7975 16.6544 19.3053C16.9225 18.8356 17.2133 18.3494 17.538 17.8287C16.6318 17.9492 15.7486 18.1015 14.9036 18.2827ZM31.769 17.008C31.752 17.008 31.7355 17.0062 31.7184 17.0025C30.252 16.6722 28.6654 16.4289 27.0034 16.2789C26.9358 16.273 26.8737 16.2371 26.8351 16.181C25.8539 14.766 24.8281 13.4697 23.7867 12.3275C23.7039 12.2369 23.7071 12.0971 23.794 12.0101C25.7265 10.0735 27.5582 8.83246 29.0905 8.42214C29.9502 8.19214 30.6719 8.24412 31.2313 8.57026C32.7746 9.47186 33.0662 12.639 31.9917 16.8355C31.965 16.9386 31.8721 17.008 31.769 17.008ZM27.1516 15.8304C28.7123 15.9753 30.2073 16.2021 31.6002 16.5053C32.5437 12.6813 32.3128 9.73452 30.999 8.96724C30.5487 8.70458 29.9451 8.67008 29.2091 8.86604C27.7951 9.24508 26.0917 10.3896 24.2743 12.1808C25.2573 13.2733 26.2242 14.4997 27.1516 15.8304ZM14.2311 17.008C14.128 17.008 14.0351 16.9386 14.0084 16.8351C12.9339 12.6385 13.2251 9.47186 14.7684 8.57026C15.3277 8.24412 16.0508 8.19214 16.9092 8.42214C18.4419 8.83292 20.2732 10.0735 22.2056 12.0101C22.2921 12.0971 22.2953 12.2369 22.213 12.3275C21.1716 13.4697 20.1458 14.7665 19.1646 16.181C19.1259 16.2371 19.0643 16.273 18.9962 16.2789C17.3347 16.4289 15.7482 16.6722 14.2812 17.0025C14.2647 17.0062 14.2481 17.008 14.2311 17.008ZM15.0007 8.96724C13.6874 9.73452 13.4564 12.6813 14.3994 16.5053C15.7923 16.2021 17.2873 15.9753 18.8481 15.8304C19.7759 14.4997 20.7424 13.2733 21.7249 12.1803C19.9075 10.3891 18.2046 9.24462 16.7901 8.86558C16.0573 8.67008 15.4528 8.70412 15.0007 8.96724ZM25.2375 16.1561C25.2338 16.1561 25.2301 16.1561 25.2265 16.1561C23.7057 16.0821 22.2949 16.0821 20.7741 16.1561C20.6794 16.1584 20.6021 16.1129 20.5602 16.0351C20.5184 15.9569 20.5248 15.8617 20.5777 15.79C21.3077 14.7987 22.0653 13.8672 22.8299 13.0217C22.9173 12.9255 23.0838 12.9255 23.1712 13.0217C23.9352 13.8667 24.6929 14.7982 25.4233 15.79C25.4758 15.8613 25.4827 15.9569 25.4408 16.0351C25.3999 16.1097 25.3217 16.1561 25.2375 16.1561ZM23.0001 15.64C23.5714 15.64 24.1625 15.652 24.7632 15.6754C24.1873 14.9132 23.5958 14.1905 23.0001 13.5208C22.4044 14.191 21.8128 14.9132 21.2369 15.6754C21.8376 15.652 22.4287 15.64 23.0001 15.64Z" fill="#1F212B"/>
</svg>
