<svg width="24" height="24" viewBox="0 0 24 24" fill="none" xmlns="http://www.w3.org/2000/svg">
<path opacity="0.35" d="M5.16001 22.3199C3.77041 22.3199 2.64001 21.1895 2.64001 19.7999V5.15989C2.64001 3.77029 3.77041 2.63989 5.16001 2.63989H19.8C21.1896 2.63989 22.32 3.77029 22.32 5.15989V19.7999C22.32 21.1895 21.1896 22.3199 19.8 22.3199H5.16001Z" fill="black"/>
<path d="M4.68003 21.8399C3.29043 21.8399 2.16003 20.7095 2.16003 19.3199V4.67991C2.16003 3.29031 3.29043 2.15991 4.68003 2.15991H19.32C20.7096 2.15991 21.84 3.29031 21.84 4.67991V19.3199C21.84 20.7095 20.7096 21.8399 19.32 21.8399H4.68003Z" fill="#F2F2F2"/>
<path d="M19.32 20.28H4.67997C4.14981 20.28 3.71997 19.8501 3.71997 19.32V4.67997C3.71997 4.14981 4.14981 3.71997 4.67997 3.71997H19.32C19.8501 3.71997 20.28 4.14981 20.28 4.67997V19.32C20.28 19.8501 19.8501 20.28 19.32 20.28Z" fill="#9AA2E6" stroke="#40396E" stroke-width="1.5" stroke-miterlimit="10" stroke-linecap="round" stroke-linejoin="round"/>
<path d="M9.18891 14.8213C9.01587 14.8213 8.87403 14.7819 8.76363 14.7039C8.65299 14.6257 8.56227 14.5055 8.49219 14.3435L6.45075 9.80651C6.34251 9.56339 6.34395 9.36227 6.45483 9.20291C6.56547 9.04355 6.73443 8.96387 6.96099 8.96387C7.14459 8.96387 7.28379 9.00587 7.37811 9.08939C7.47267 9.17315 7.55499 9.29603 7.62531 9.45803L9.21315 13.136L10.8007 9.44987C10.8658 9.29339 10.9479 9.17315 11.0479 9.08939C11.1478 9.00563 11.2839 8.96387 11.4569 8.96387C11.6676 8.96387 11.8255 9.04379 11.9309 9.20291C12.0363 9.36227 12.0351 9.56339 11.9268 9.80651L9.88563 14.3432C9.81003 14.5052 9.71955 14.6255 9.61419 14.7037C9.50883 14.7819 9.36699 14.8213 9.18891 14.8213Z" fill="#F2F2F2"/>
<path d="M13.361 14.7481C12.9235 14.7481 12.7048 14.5293 12.7048 14.092V9.69303C12.7048 9.25551 12.9235 9.03687 13.361 9.03687H15.3216C15.9319 9.03687 16.403 9.16911 16.7354 9.43383C17.0676 9.69855 17.2334 10.0605 17.2334 10.5193C17.2334 10.8217 17.1578 11.0824 17.0066 11.301C16.8554 11.5197 16.6447 11.6831 16.3747 11.7911C16.6989 11.883 16.9488 12.045 17.1242 12.2771C17.2994 12.5094 17.3875 12.7955 17.3875 13.1358C17.3875 13.6434 17.2106 14.0392 16.8568 14.3226C16.5028 14.6061 16.0212 14.7479 15.4108 14.7479L13.361 14.7481ZM13.9039 11.3862H15.1029C15.7185 11.3862 16.0264 11.1486 16.0264 10.6732C16.0264 10.2033 15.7188 9.96831 15.1029 9.96831H13.9039V11.3862ZM13.9039 13.8165H15.2404C15.5647 13.8165 15.8023 13.7545 15.9535 13.6302C16.1047 13.5059 16.1803 13.317 16.1803 13.0631C16.1803 12.8147 16.1047 12.6282 15.9535 12.5041C15.8023 12.3801 15.5647 12.3179 15.2404 12.3179H13.9039V13.8165Z" fill="#F2F2F2"/>
</svg>
