<svg width="48" height="48" viewBox="0 0 48 48" fill="none" xmlns="http://www.w3.org/2000/svg">
<path d="M44.8599 9.97603L25.0229 45.448C24.6129 46.18 23.5609 46.185 23.1449 45.456L2.91494 9.97903C2.46194 9.18503 3.14094 8.22303 4.04094 8.38403L23.8999 11.934C24.0269 11.957 24.1559 11.956 24.2829 11.933L43.7259 8.38903C44.6229 8.22503 45.3049 9.18003 44.8599 9.97603Z" fill="url(#paint0_linear_109_321)"/>
<path d="M33.574 3.00997L19.019 5.86197C18.78 5.90897 18.603 6.11197 18.588 6.35497L17.693 21.476C17.672 21.832 17.999 22.109 18.347 22.028L22.399 21.093C22.778 21.006 23.121 21.339 23.043 21.721L21.839 27.616C21.758 28.013 22.13 28.352 22.518 28.234L25.021 27.474C25.409 27.356 25.782 27.696 25.7 28.094L23.787 37.354C23.667 37.933 24.438 38.249 24.759 37.752L24.974 37.42L36.834 13.751C37.033 13.355 36.69 12.903 36.255 12.987L32.084 13.792C31.692 13.868 31.359 13.503 31.469 13.119L34.191 3.68097C34.301 3.29897 33.967 2.93297 33.574 3.00997Z" fill="url(#paint1_linear_109_321)"/>
<defs>
<linearGradient id="paint0_linear_109_321" x1="13.3149" y1="-0.90597" x2="38.0049" y2="32.623" gradientUnits="userSpaceOnUse">
<stop stop-color="#41D1FF"/>
<stop offset="1" stop-color="#9231BE"/>
</linearGradient>
<linearGradient id="paint1_linear_109_321" x1="25.502" y1="5.23597" x2="37.131" y2="85.01" gradientUnits="userSpaceOnUse">
<stop stop-color="#FED100"/>
<stop offset="1" stop-color="#E36001"/>
</linearGradient>
</defs>
</svg>
