<svg width="48" height="48" viewBox="0 0 48 48" fill="none" xmlns="http://www.w3.org/2000/svg">
<path d="M44 11.11V36.89C44 38.16 43.21 39.29 42.02 39.71L33.2 43.85L34 33V15L33.2 4.15002L42.02 8.29002C43.21 8.71002 44 9.84002 44 11.11Z" fill="#29B6F6"/>
<path d="M9.00004 33.896L34 15V5.35297C34 4.15497 32.518 3.59497 31.725 4.49297L4.65804 29.239C3.75804 30.069 3.80904 31.506 4.76504 32.271C4.76504 32.271 6.08904 33.503 6.56804 33.845C7.30404 34.37 8.27104 34.43 9.00004 33.896Z" fill="#0277BD"/>
<path d="M9.00004 14.104L34 33V42.647C34 43.845 32.518 44.405 31.725 43.507L4.65804 18.761C3.75804 17.931 3.80904 16.494 4.76504 15.729C4.76504 15.729 6.08904 14.497 6.56804 14.155C7.30404 13.63 8.27104 13.57 9.00004 14.104Z" fill="#0288D1"/>
</svg>
